<mxfile host="app.diagrams.net" modified="2023-04-14T14:16:23.700Z" agent="Mozilla/5.0 (Windows NT 10.0; Win64; x64) AppleWebKit/537.36 (KHTML, like Gecko) Chrome/111.0.0.0 Safari/537.36" etag="KzjzPwI1Zalg-tBc5hQu" version="21.1.8" type="device">
  <diagram name="Seite-1" id="Qvs0A6YkFHrKKuY6R46W">
    <mxGraphModel dx="2059" dy="1097" grid="1" gridSize="10" guides="1" tooltips="1" connect="1" arrows="1" fold="1" page="1" pageScale="1" pageWidth="827" pageHeight="1169" math="0" shadow="0">
      <root>
        <mxCell id="0" />
        <mxCell id="1" parent="0" />
        <mxCell id="afdbod2VfnXLqZEtqyHm-23" value="" style="edgeStyle=orthogonalEdgeStyle;rounded=0;orthogonalLoop=1;jettySize=auto;html=1;" parent="1" source="afdbod2VfnXLqZEtqyHm-1" target="afdbod2VfnXLqZEtqyHm-10" edge="1">
          <mxGeometry relative="1" as="geometry" />
        </mxCell>
        <mxCell id="afdbod2VfnXLqZEtqyHm-1" value="S3 Bucket" style="sketch=0;outlineConnect=0;fontColor=#232F3E;gradientColor=none;fillColor=#3F8624;strokeColor=none;dashed=0;verticalLabelPosition=bottom;verticalAlign=top;align=center;html=1;fontSize=12;fontStyle=0;aspect=fixed;pointerEvents=1;shape=mxgraph.aws4.bucket_with_objects;" parent="1" vertex="1">
          <mxGeometry x="-366.5" y="324.46" width="75" height="78" as="geometry" />
        </mxCell>
        <mxCell id="afdbod2VfnXLqZEtqyHm-22" value="" style="edgeStyle=orthogonalEdgeStyle;rounded=0;orthogonalLoop=1;jettySize=auto;html=1;" parent="1" source="afdbod2VfnXLqZEtqyHm-2" target="afdbod2VfnXLqZEtqyHm-10" edge="1">
          <mxGeometry relative="1" as="geometry" />
        </mxCell>
        <mxCell id="afdbod2VfnXLqZEtqyHm-2" value="Athena" style="sketch=0;points=[[0,0,0],[0.25,0,0],[0.5,0,0],[0.75,0,0],[1,0,0],[0,1,0],[0.25,1,0],[0.5,1,0],[0.75,1,0],[1,1,0],[0,0.25,0],[0,0.5,0],[0,0.75,0],[1,0.25,0],[1,0.5,0],[1,0.75,0]];outlineConnect=0;fontColor=#232F3E;gradientColor=#945DF2;gradientDirection=north;fillColor=#5A30B5;strokeColor=#ffffff;dashed=0;verticalLabelPosition=bottom;verticalAlign=top;align=center;html=1;fontSize=12;fontStyle=0;aspect=fixed;shape=mxgraph.aws4.resourceIcon;resIcon=mxgraph.aws4.athena;" parent="1" vertex="1">
          <mxGeometry x="-118" y="324.46" width="78" height="78" as="geometry" />
        </mxCell>
        <mxCell id="afdbod2VfnXLqZEtqyHm-16" value="" style="edgeStyle=orthogonalEdgeStyle;rounded=0;orthogonalLoop=1;jettySize=auto;html=1;" parent="1" source="afdbod2VfnXLqZEtqyHm-3" target="afdbod2VfnXLqZEtqyHm-9" edge="1">
          <mxGeometry relative="1" as="geometry" />
        </mxCell>
        <mxCell id="afdbod2VfnXLqZEtqyHm-3" value="Kinesis Data Stream" style="sketch=0;points=[[0,0,0],[0.25,0,0],[0.5,0,0],[0.75,0,0],[1,0,0],[0,1,0],[0.25,1,0],[0.5,1,0],[0.75,1,0],[1,1,0],[0,0.25,0],[0,0.5,0],[0,0.75,0],[1,0.25,0],[1,0.5,0],[1,0.75,0]];outlineConnect=0;fontColor=#232F3E;gradientColor=#945DF2;gradientDirection=north;fillColor=#5A30B5;strokeColor=#ffffff;dashed=0;verticalLabelPosition=bottom;verticalAlign=top;align=center;html=1;fontSize=12;fontStyle=0;aspect=fixed;shape=mxgraph.aws4.resourceIcon;resIcon=mxgraph.aws4.kinesis_data_streams;shadow=0;" parent="1" vertex="1">
          <mxGeometry x="-788" y="324.46" width="78" height="78" as="geometry" />
        </mxCell>
        <mxCell id="afdbod2VfnXLqZEtqyHm-17" value="" style="edgeStyle=orthogonalEdgeStyle;rounded=0;orthogonalLoop=1;jettySize=auto;html=1;" parent="1" source="afdbod2VfnXLqZEtqyHm-4" target="afdbod2VfnXLqZEtqyHm-9" edge="1">
          <mxGeometry relative="1" as="geometry" />
        </mxCell>
        <mxCell id="afdbod2VfnXLqZEtqyHm-25" value="" style="edgeStyle=orthogonalEdgeStyle;rounded=0;orthogonalLoop=1;jettySize=auto;html=1;exitX=1;exitY=0.5;exitDx=0;exitDy=0;exitPerimeter=0;" parent="1" source="afdbod2VfnXLqZEtqyHm-4" target="afdbod2VfnXLqZEtqyHm-1" edge="1">
          <mxGeometry relative="1" as="geometry" />
        </mxCell>
        <mxCell id="afdbod2VfnXLqZEtqyHm-4" value="Glue&lt;br&gt;ETL Streaming Job" style="sketch=0;points=[[0,0,0],[0.25,0,0],[0.5,0,0],[0.75,0,0],[1,0,0],[0,1,0],[0.25,1,0],[0.5,1,0],[0.75,1,0],[1,1,0],[0,0.25,0],[0,0.5,0],[0,0.75,0],[1,0.25,0],[1,0.5,0],[1,0.75,0]];outlineConnect=0;fontColor=#232F3E;gradientColor=#945DF2;gradientDirection=north;fillColor=#5A30B5;strokeColor=#ffffff;dashed=0;verticalLabelPosition=bottom;verticalAlign=top;align=center;html=1;fontSize=12;fontStyle=0;aspect=fixed;shape=mxgraph.aws4.resourceIcon;resIcon=mxgraph.aws4.glue;" parent="1" vertex="1">
          <mxGeometry x="-516" y="324.46" width="78" height="78" as="geometry" />
        </mxCell>
        <mxCell id="afdbod2VfnXLqZEtqyHm-9" value="Glue&lt;br&gt;Data Catalog table" style="sketch=0;outlineConnect=0;fontColor=#232F3E;gradientColor=none;fillColor=#4D27AA;strokeColor=none;dashed=0;verticalLabelPosition=bottom;verticalAlign=top;align=center;html=1;fontSize=12;fontStyle=0;aspect=fixed;pointerEvents=1;shape=mxgraph.aws4.glue_data_catalog;" parent="1" vertex="1">
          <mxGeometry x="-638" y="336.91999999999996" width="49" height="53.08" as="geometry" />
        </mxCell>
        <mxCell id="afdbod2VfnXLqZEtqyHm-10" value="Glue&lt;br&gt;Data Catalog table" style="sketch=0;outlineConnect=0;fontColor=#232F3E;gradientColor=none;fillColor=#4D27AA;strokeColor=none;dashed=0;verticalLabelPosition=bottom;verticalAlign=top;align=center;html=1;fontSize=12;fontStyle=0;aspect=fixed;pointerEvents=1;shape=mxgraph.aws4.glue_data_catalog;" parent="1" vertex="1">
          <mxGeometry x="-228" y="336.92" width="49" height="53.08" as="geometry" />
        </mxCell>
        <mxCell id="Lbf1FSBHXP7zgYyA-TMh-36" value="" style="edgeStyle=orthogonalEdgeStyle;rounded=0;orthogonalLoop=1;jettySize=auto;html=1;strokeColor=#999999;strokeWidth=1;exitX=0;exitY=0.25;exitDx=0;exitDy=0;exitPerimeter=0;entryX=0.5;entryY=0;entryDx=0;entryDy=0;entryPerimeter=0;" parent="1" source="Lbf1FSBHXP7zgYyA-TMh-2" edge="1" target="afdbod2VfnXLqZEtqyHm-3">
          <mxGeometry relative="1" as="geometry">
            <mxPoint x="-749" y="280" as="targetPoint" />
            <Array as="points">
              <mxPoint x="-230" y="200" />
              <mxPoint x="-749" y="200" />
            </Array>
            <mxPoint x="-130" y="510" as="sourcePoint" />
          </mxGeometry>
        </mxCell>
        <mxCell id="Lbf1FSBHXP7zgYyA-TMh-41" value="" style="edgeStyle=orthogonalEdgeStyle;rounded=0;orthogonalLoop=1;jettySize=auto;html=1;strokeColor=#999999;strokeWidth=1;exitX=0;exitY=0.75;exitDx=0;exitDy=0;exitPerimeter=0;" parent="1" source="Lbf1FSBHXP7zgYyA-TMh-2" target="afdbod2VfnXLqZEtqyHm-1" edge="1">
          <mxGeometry relative="1" as="geometry">
            <mxPoint x="19" y="441.4599999999999" as="targetPoint" />
            <Array as="points">
              <mxPoint x="-240" y="238" />
              <mxPoint x="-329" y="238" />
            </Array>
            <mxPoint x="-150" y="340" as="sourcePoint" />
          </mxGeometry>
        </mxCell>
        <mxCell id="Lbf1FSBHXP7zgYyA-TMh-2" value="CloudWatch&lt;br&gt;Dashboard" style="sketch=0;points=[[0,0,0],[0.25,0,0],[0.5,0,0],[0.75,0,0],[1,0,0],[0,1,0],[0.25,1,0],[0.5,1,0],[0.75,1,0],[1,1,0],[0,0.25,0],[0,0.5,0],[0,0.75,0],[1,0.25,0],[1,0.5,0],[1,0.75,0]];points=[[0,0,0],[0.25,0,0],[0.5,0,0],[0.75,0,0],[1,0,0],[0,1,0],[0.25,1,0],[0.5,1,0],[0.75,1,0],[1,1,0],[0,0.25,0],[0,0.5,0],[0,0.75,0],[1,0.25,0],[1,0.5,0],[1,0.75,0]];outlineConnect=0;fontColor=#232F3E;gradientColor=#F34482;gradientDirection=north;fillColor=#BC1356;strokeColor=#ffffff;dashed=0;verticalLabelPosition=bottom;verticalAlign=top;align=center;html=1;fontSize=12;fontStyle=0;aspect=fixed;shape=mxgraph.aws4.resourceIcon;resIcon=mxgraph.aws4.cloudwatch_2;" parent="1" vertex="1">
          <mxGeometry x="-118" y="179.99999999999994" width="78" height="78" as="geometry" />
        </mxCell>
        <mxCell id="Lbf1FSBHXP7zgYyA-TMh-39" value="" style="edgeStyle=orthogonalEdgeStyle;rounded=0;orthogonalLoop=1;jettySize=auto;html=1;strokeColor=#999999;strokeWidth=1;exitX=0;exitY=0.5;exitDx=0;exitDy=0;exitPerimeter=0;entryX=0.5;entryY=0;entryDx=0;entryDy=0;entryPerimeter=0;" parent="1" source="Lbf1FSBHXP7zgYyA-TMh-2" target="afdbod2VfnXLqZEtqyHm-4" edge="1">
          <mxGeometry relative="1" as="geometry">
            <mxPoint x="-110" y="490" as="sourcePoint" />
            <mxPoint x="-350" y="510" as="targetPoint" />
            <Array as="points">
              <mxPoint x="-477" y="219" />
            </Array>
          </mxGeometry>
        </mxCell>
      </root>
    </mxGraphModel>
  </diagram>
</mxfile>
